<?xml version="1.0" encoding="UTF-8"?>
<svg width="210px" height="308px" viewBox="0 0 210 308" version="1.1" xmlns="http://www.w3.org/2000/svg" xmlns:xlink="http://www.w3.org/1999/xlink">
    <!-- Generator: Sketch 47.1 (45422) - http://www.bohemiancoding.com/sketch -->
    <title>coffee-cup</title>
    <desc>Created with Sketch.</desc>
    <defs></defs>
    <g id="Page-1" stroke="none" stroke-width="1" fill="none" fill-rule="evenodd">
        <g id="coffee-cup" transform="translate(-1.000000, -1.000000)" fill-rule="nonzero">
            <g id="Fill-1" transform="translate(28.000000, 64.000000)" fill="#FF9100">
                <g id="path0_fill-link" transform="translate(0.410000, 0.289000)">
                    <polygon id="path0_fill" points="77.2414 0.464935 0 0 37.931 239.366 46.2069 239.366 122.069 239.366 130.345 239.366 168.276 0"></polygon>
                </g>
            </g>
            <g id="Fill-2" transform="translate(28.000000, 64.000000)" fill="#FFDD00">
                <g id="path1_fill-link" transform="translate(0.410000, 0.289000)">
                    <polygon id="path1_fill" points="77.2414 0.464935 0 0 37.931 239.366 46.2069 239.366 102.759 239.366 111.034 239.366 148.966 0"></polygon>
                </g>
            </g>
            <g id="Fill-3" transform="translate(6.000000, 42.000000)" fill="#FFFFFF">
                <g id="path2_fill-link" transform="translate(0.340000, 0.215000)">
                    <polygon id="path2_fill" points="0 22.0741 199.31 22.0741 199.31 0 0 0"></polygon>
                </g>
            </g>
            <g id="Stroke-4" transform="translate(0.000000, 36.000000)" fill="#000000">
                <g id="path3_stroke-link" transform="translate(0.340000, 0.215000)">
                    <path d="M6,28.0741 L0.82759,28.0741 L0.82759,33.2465 L6,33.2465 L6,28.0741 Z M205.31,28.0741 L205.31,33.2465 L210.483,33.2465 L210.483,28.0741 L205.31,28.0741 Z M205.31,6 L210.483,6 L210.483,0.82759 L205.31,0.82759 L205.31,6 Z M6,6 L6,0.82759 L0.82759,0.82759 L0.82759,6 L6,6 Z M6,33.2465 L205.31,33.2465 L205.31,22.9017 L6,22.9017 L6,33.2465 Z M210.483,28.0741 L210.483,6 L200.138,6 L200.138,28.0741 L210.483,28.0741 Z M205.31,0.82759 L6,0.82759 L6,11.17241 L205.31,11.17241 L205.31,0.82759 Z M0.82759,6 L0.82759,28.0741 L11.17241,28.0741 L11.17241,6 L0.82759,6 Z" id="path3_stroke"></path>
                </g>
            </g>
            <g id="Fill-6" transform="translate(29.000000, 6.000000)" fill="#FFFFFF">
                <g id="path4_fill-link" transform="translate(0.100000, 0.345000)">
                    <polygon id="path4_fill" points="137.931 0 90.3448 0 62.069 0 14.4828 0 0 33.1111 62.069 33.1111 90.3448 33.1111 152.414 33.1111"></polygon>
                </g>
            </g>
            <g id="Group-11" transform="translate(7.000000, 0.000000)">
                <g id="Stroke-7" transform="translate(14.000000, 0.000000)" fill="#050505">
                    <g id="path5_stroke-link" transform="translate(0.100000, 0.345000)">
                        <path d="M145.931,6 L150.67,3.9272 L149.314,0.82759 L145.931,0.82759 L145.931,6 Z M22.4828,6 L22.4828,0.82759 L19.0996,0.82759 L17.74384,3.9272 L22.4828,6 Z M8,39.1111 L3.26108,37.0383 L0.09203,44.2835 L8,44.2835 L8,39.1111 Z M160.414,39.1111 L160.414,44.2835 L168.322,44.2835 L165.153,37.0383 L160.414,39.1111 Z M145.931,0.82759 L98.3448,0.82759 L98.3448,11.17241 L145.931,11.17241 L145.931,0.82759 Z M98.3448,0.82759 L70.069,0.82759 L70.069,11.17241 L98.3448,11.17241 L98.3448,0.82759 Z M70.069,0.82759 L22.4828,0.82759 L22.4828,11.17241 L70.069,11.17241 L70.069,0.82759 Z M17.74384,3.9272 L3.26108,37.0383 L12.73892,41.1839 L27.2217,8.0728 L17.74384,3.9272 Z M8,44.2835 L70.069,44.2835 L70.069,33.9387 L8,33.9387 L8,44.2835 Z M70.069,44.2835 L98.3448,44.2835 L98.3448,33.9387 L70.069,33.9387 L70.069,44.2835 Z M98.3448,44.2835 L160.414,44.2835 L160.414,33.9387 L98.3448,33.9387 L98.3448,44.2835 Z M165.153,37.0383 L150.67,3.9272 L141.192,8.0728 L155.675,41.1839 L165.153,37.0383 Z" id="path5_stroke"></path>
                    </g>
                </g>
                <g id="Stroke-9" transform="translate(0.000000, 58.000000)" fill="#000000">
                    <g id="path6_stroke-link" transform="translate(0.620000, 0.289000)">
                        <path d="M98.0345,6.464935 L98.0081,11.63728 L98.0345,11.63742 L98.0609,11.63728 L98.0345,6.464935 Z M7,6 L7.0264164,0.82765 L0.93848,0.79656 L1.89133,6.809544 L7,6 Z M44.931,245.366 L39.8224,246.175 L40.5137,250.538 L44.931,250.538 L44.931,245.366 Z M151.138,245.366 L151.138,250.538 L155.555,250.538 L156.247,246.175 L151.138,245.366 Z M189.069,6 L194.178,6.809544 L195.13,0.79656 L189.043,0.82765 L189.069,6 Z M98.0609,1.29259 L7.0264164,0.82765 L6.9735836,11.17235 L98.0081,11.63728 L98.0609,1.29259 Z M1.89133,6.809544 L39.8224,246.175 L50.0397,244.556 L12.10867,5.190456 L1.89133,6.809544 Z M44.931,250.538 L53.2069,250.538 L53.2069,240.193 L44.931,240.193 L44.931,250.538 Z M53.2069,250.538 L142.862,250.538 L142.862,240.193 L53.2069,240.193 L53.2069,250.538 Z M142.862,250.538 L151.138,250.538 L151.138,240.193 L142.862,240.193 L142.862,250.538 Z M156.247,246.175 L194.178,6.809544 L183.96,5.190456 L146.029,244.556 L156.247,246.175 Z M189.043,0.82765 L98.0081,1.29259 L98.0609,11.63728 L189.095,11.17235 L189.043,0.82765 Z" id="path6_stroke"></path>
                    </g>
                </g>
            </g>
            <g id="Fill-12" transform="translate(11.000000, 131.000000)" fill="#FFFFFF">
                <g id="path7_fill-link" transform="translate(0.170000, 0.891000)">
                    <polygon id="path7_fill" points="188.276 0 97.4062 0 90.8697 0 0 0 16.9972 95.1944 94.1379 94.3646 171.279 95.1944"></polygon>
                </g>
            </g>
            <g id="Stroke-13" transform="translate(4.000000, 125.000000)" fill="#000000">
                <g id="path8_stroke-link" transform="translate(0.170000, 0.891000)">
                    <path d="M195.276,6 L200.368,6.90917 L201.454,0.82759 L195.276,0.82759 L195.276,6 Z M7,6 L7,0.82759 L0.82223,0.82759 L1.90812,6.90917 L7,6 Z M23.9972,101.1944 L18.9054,102.1036 L19.6749,106.414 L24.0529,106.367 L23.9972,101.1944 Z M101.1379,100.3646 L101.1936,95.1925 L101.1379,95.1919 L101.0823,95.1925 L101.1379,100.3646 Z M178.279,101.1944 L178.223,106.367 L182.601,106.414 L183.371,102.1036 L178.279,101.1944 Z M195.276,0.82759 L104.4062,0.82759 L104.4062,11.17241 L195.276,11.17241 L195.276,0.82759 Z M104.4062,0.82759 L97.8697,0.82759 L97.8697,11.17241 L104.4062,11.17241 L104.4062,0.82759 Z M97.8697,0.82759 L7,0.82759 L7,11.17241 L97.8697,11.17241 L97.8697,0.82759 Z M1.90812,6.90917 L18.9054,102.1036 L29.0891,100.2853 L12.09188,5.09083 L1.90812,6.90917 Z M24.0529,106.367 L101.1936,105.5367 L101.0823,95.1925 L23.9416,96.0223 L24.0529,106.367 Z M101.0823,105.5367 L178.223,106.367 L178.334,96.0223 L101.1936,95.1925 L101.0823,105.5367 Z M183.371,102.1036 L200.368,6.90917 L190.184,5.09083 L173.187,100.2853 L183.371,102.1036 Z" id="path8_stroke"></path>
                </g>
            </g>
        </g>
    </g>
</svg>